<svg width="18" height="18" viewBox="0 0 18 18" fill="none" xmlns="http://www.w3.org/2000/svg">
<path d="M15.3784 11.8077C14.9196 11.6115 14.5287 11.2844 14.2546 10.8673C13.9805 10.4502 13.8354 9.96156 13.8374 9.46249C13.8434 9.01699 13.9627 8.58035 14.1841 8.19374C14.4055 7.80713 14.7218 7.48329 15.103 7.25277C15.1893 7.19946 15.2639 7.12922 15.3222 7.04628C15.3805 6.96334 15.4215 6.86944 15.4425 6.77024C15.4635 6.67104 15.4642 6.56861 15.4445 6.46914C15.4248 6.36967 15.3851 6.27522 15.3279 6.19152C14.9852 5.69312 14.5384 5.27503 14.0183 4.96611C13.4983 4.65719 12.9174 4.4648 12.3158 4.40222C12.8758 3.51357 13.1299 2.46624 13.0394 1.41978C13.0218 1.22977 12.9312 1.05397 12.7867 0.929296C12.6423 0.804618 12.4551 0.740746 12.2645 0.751085C10.9768 0.865863 9.78296 1.47326 8.93202 2.44664C8.39261 3.07168 8.01196 3.81764 7.82241 4.6212C7.43077 4.48866 7.02074 4.41847 6.60732 4.41319C5.84193 4.43489 5.09514 4.65397 4.43934 5.04921C3.78354 5.44444 3.24098 6.00242 2.86428 6.66903C1.4485 9.12704 2.31459 12.8104 3.84828 15.0274C4.46351 15.9159 5.38673 17.2496 6.77943 17.2496C6.80689 17.2496 6.83472 17.2496 6.86256 17.2481C7.32919 17.2216 7.78602 17.1034 8.20692 16.9002C8.54311 16.7298 8.91402 16.6391 9.29091 16.6351C9.64533 16.6394 9.99388 16.7261 10.309 16.8885C10.7694 17.1063 11.2711 17.2229 11.7804 17.2305C13.2152 17.2034 14.0627 15.9656 14.6815 15.0611C15.1699 14.3426 15.552 13.5574 15.816 12.7298C15.8723 12.5492 15.8586 12.3541 15.7775 12.1832C15.6964 12.0124 15.5539 11.8783 15.3784 11.8077V11.8077ZM10.0676 3.4259C10.4616 2.98527 10.9551 2.64525 11.5072 2.4342C11.3864 3.02838 11.1192 3.583 10.7298 4.04772C10.4654 4.36488 10.1438 4.6295 9.78164 4.82778L9.77944 4.82853C9.7582 4.83732 9.73696 4.84538 9.71569 4.85417C9.5758 4.9091 9.40294 4.97721 9.26965 5.02116C9.39838 4.43115 9.67271 3.88274 10.0676 3.4259V3.4259ZM13.4437 14.2145C12.841 15.0949 12.3667 15.7196 11.7529 15.7306C11.4563 15.7297 11.1645 15.6544 10.9044 15.5116C10.4017 15.2666 9.85019 15.1379 9.29091 15.1351C8.7122 15.138 8.14134 15.2693 7.61952 15.5196C7.36582 15.6491 7.08905 15.7273 6.80507 15.7496H6.78273C6.17298 15.7496 5.51711 14.8026 5.08168 14.1734C3.9922 12.5987 2.98732 9.46102 4.16433 7.41756C4.41114 6.97536 4.76807 6.60448 5.20048 6.3409C5.63288 6.07731 6.12608 5.92999 6.63222 5.91321L6.65748 5.91246C7.08445 5.94874 7.50138 6.06163 7.88832 6.24571C7.98684 6.28452 8.08388 6.32335 8.18019 6.35923C8.20473 6.36949 8.23 6.37901 8.25563 6.38706C8.52253 6.49441 8.80603 6.55464 9.09352 6.56505C9.50058 6.5327 9.89821 6.42569 10.2665 6.24937C10.7857 5.99739 11.3564 5.86975 11.9335 5.87657C12.5508 5.90072 13.1433 6.12546 13.6214 6.51671C13.2128 6.89311 12.8876 7.35081 12.6665 7.86041C12.4453 8.37 12.3333 8.92021 12.3374 9.47569V9.47644C12.3332 10.1489 12.4996 10.8115 12.8211 11.4021C13.1427 11.9927 13.6088 12.4922 14.1758 12.8536C13.9784 13.3308 13.7331 13.7867 13.4437 14.2145V14.2145Z" fill="#838383"/>
</svg>
