<svg width="18" height="18" viewBox="0 0 18 18" fill="none" xmlns="http://www.w3.org/2000/svg">
<path d="M15.3782 11.8077C14.9193 11.6115 14.5284 11.2844 14.2544 10.8673C13.9803 10.4502 13.8352 9.96156 13.8372 9.46249C13.8431 9.01699 13.9624 8.58035 14.1839 8.19374C14.4053 7.80713 14.7215 7.48329 15.1028 7.25277C15.1891 7.19946 15.2636 7.12922 15.322 7.04628C15.3803 6.96334 15.4212 6.86944 15.4422 6.77024C15.4633 6.67104 15.4639 6.56861 15.4442 6.46914C15.4245 6.36967 15.3849 6.27522 15.3277 6.19152C14.9849 5.69312 14.5381 5.27503 14.0181 4.96611C13.4981 4.65719 12.9172 4.4648 12.3156 4.40222C12.8755 3.51357 13.1296 2.46624 13.0392 1.41978C13.0215 1.22977 12.931 1.05397 12.7865 0.929296C12.642 0.804618 12.4549 0.740746 12.2643 0.751085C10.9765 0.865863 9.78272 1.47326 8.93178 2.44664C8.39236 3.07168 8.01172 3.81764 7.82216 4.6212C7.43052 4.48866 7.0205 4.41847 6.60707 4.41319C5.84169 4.43489 5.09489 4.65397 4.43909 5.04921C3.78329 5.44444 3.24074 6.00242 2.86403 6.66903C1.44826 9.12704 2.31435 12.8104 3.84803 15.0274C4.46327 15.9159 5.38649 17.2496 6.77918 17.2496C6.80665 17.2496 6.83448 17.2496 6.86231 17.2481C7.32895 17.2216 7.78578 17.1034 8.20667 16.9002C8.54287 16.7298 8.91377 16.6391 9.29066 16.6351C9.64509 16.6394 9.99364 16.7261 10.3087 16.8885C10.7691 17.1063 11.2709 17.2229 11.7802 17.2305C13.215 17.2034 14.0624 15.9656 14.6813 15.0611C15.1696 14.3426 15.5517 13.5574 15.8158 12.7298C15.8721 12.5492 15.8583 12.3541 15.7772 12.1832C15.6961 12.0124 15.5537 11.8783 15.3782 11.8077V11.8077ZM10.0674 3.4259C10.4613 2.98527 10.9549 2.64525 11.507 2.4342C11.3862 3.02838 11.1189 3.583 10.7295 4.04772C10.4652 4.36488 10.1435 4.6295 9.7814 4.82778L9.7792 4.82853C9.75796 4.83732 9.73672 4.84538 9.71545 4.85417C9.57556 4.9091 9.4027 4.97721 9.26941 5.02116C9.39813 4.43115 9.67246 3.88274 10.0674 3.4259V3.4259ZM13.4435 14.2145C12.8407 15.0949 12.3665 15.7196 11.7527 15.7306C11.456 15.7297 11.1643 15.6544 10.9042 15.5116C10.4014 15.2666 9.84995 15.1379 9.29067 15.1351C8.71195 15.138 8.1411 15.2693 7.61928 15.5196C7.36558 15.6491 7.0888 15.7273 6.80483 15.7496H6.78249C6.17274 15.7496 5.51687 14.8026 5.08144 14.1734C3.99196 12.5987 2.98708 9.46102 4.16408 7.41756C4.4109 6.97536 4.76782 6.60448 5.20023 6.3409C5.63264 6.07731 6.12584 5.92999 6.63197 5.91321L6.65724 5.91246C7.0842 5.94874 7.50114 6.06163 7.88808 6.24571C7.98659 6.28452 8.08364 6.32335 8.17995 6.35923C8.20448 6.36949 8.22975 6.37901 8.25539 6.38706C8.52229 6.49441 8.80579 6.55464 9.09328 6.56505C9.50034 6.5327 9.89796 6.42569 10.2663 6.24937C10.7855 5.99739 11.3562 5.86975 11.9333 5.87657C12.5505 5.90072 13.1431 6.12546 13.6211 6.51671C13.2126 6.89311 12.8873 7.35081 12.6662 7.86041C12.4451 8.37 12.333 8.92021 12.3372 9.47569V9.47644C12.333 10.1489 12.4994 10.8115 12.8209 11.4021C13.1424 11.9927 13.6085 12.4922 14.1756 12.8536C13.9781 13.3308 13.7328 13.7867 13.4435 14.2145V14.2145Z" fill="#838383"/>
</svg>
