<svg width="19" height="18" viewBox="0 0 19 18" fill="none" xmlns="http://www.w3.org/2000/svg">
<path d="M14 1.5H6.5C5.70435 1.5 4.94129 1.81607 4.37868 2.37868C3.81607 2.94129 3.5 3.70435 3.5 4.5V13.5C3.5 14.2956 3.81607 15.0587 4.37868 15.6213C4.94129 16.1839 5.70435 16.5 6.5 16.5H14C14.3978 16.5 14.7794 16.342 15.0607 16.0607C15.342 15.7794 15.5 15.3978 15.5 15V3C15.5 2.60218 15.342 2.22064 15.0607 1.93934C14.7794 1.65804 14.3978 1.5 14 1.5ZM5 4.5C5 4.10218 5.15804 3.72064 5.43934 3.43934C5.72064 3.15804 6.10218 3 6.5 3H14V10.5H6.5C5.97128 10.5022 5.45299 10.6473 5 10.92V4.5ZM6.5 15C6.10218 15 5.72064 14.842 5.43934 14.5607C5.15804 14.2794 5 13.8978 5 13.5C5 13.1022 5.15804 12.7206 5.43934 12.4393C5.72064 12.158 6.10218 12 6.5 12H14V15H6.5ZM8 6H11C11.1989 6 11.3897 5.92098 11.5303 5.78033C11.671 5.63968 11.75 5.44891 11.75 5.25C11.75 5.05109 11.671 4.86032 11.5303 4.71967C11.3897 4.57902 11.1989 4.5 11 4.5H8C7.80109 4.5 7.61032 4.57902 7.46967 4.71967C7.32902 4.86032 7.25 5.05109 7.25 5.25C7.25 5.44891 7.32902 5.63968 7.46967 5.78033C7.61032 5.92098 7.80109 6 8 6V6Z" fill="white"/>
</svg>
