<svg width="19" height="19" viewBox="0 0 19 19" fill="none" xmlns="http://www.w3.org/2000/svg">
<path d="M14 2H6.5C5.70435 2 4.94129 2.31607 4.37868 2.87868C3.81607 3.44129 3.5 4.20435 3.5 5V14C3.5 14.7956 3.81607 15.5587 4.37868 16.1213C4.94129 16.6839 5.70435 17 6.5 17H14C14.3978 17 14.7794 16.842 15.0607 16.5607C15.342 16.2794 15.5 15.8978 15.5 15.5V3.5C15.5 3.10218 15.342 2.72064 15.0607 2.43934C14.7794 2.15804 14.3978 2 14 2ZM5 5C5 4.60218 5.15804 4.22064 5.43934 3.93934C5.72064 3.65804 6.10218 3.5 6.5 3.5H14V11H6.5C5.97128 11.0022 5.45299 11.1473 5 11.42V5ZM6.5 15.5C6.10218 15.5 5.72064 15.342 5.43934 15.0607C5.15804 14.7794 5 14.3978 5 14C5 13.6022 5.15804 13.2206 5.43934 12.9393C5.72064 12.658 6.10218 12.5 6.5 12.5H14V15.5H6.5ZM8 6.5H11C11.1989 6.5 11.3897 6.42098 11.5303 6.28033C11.671 6.13968 11.75 5.94891 11.75 5.75C11.75 5.55109 11.671 5.36032 11.5303 5.21967C11.3897 5.07902 11.1989 5 11 5H8C7.80109 5 7.61032 5.07902 7.46967 5.21967C7.32902 5.36032 7.25 5.55109 7.25 5.75C7.25 5.94891 7.32902 6.13968 7.46967 6.28033C7.61032 6.42098 7.80109 6.5 8 6.5V6.5Z" fill="black"/>
</svg>
