<svg width="25" height="25" viewBox="0 0 25 25" fill="none" xmlns="http://www.w3.org/2000/svg">
<path d="M12.25 19.5C12.4478 19.5 12.6411 19.4414 12.8056 19.3315C12.97 19.2216 13.0982 19.0654 13.1739 18.8827C13.2496 18.7 13.2694 18.4989 13.2308 18.3049C13.1922 18.1109 13.097 17.9327 12.9571 17.7929C12.8173 17.653 12.6391 17.5578 12.4451 17.5192C12.2511 17.4806 12.05 17.5004 11.8673 17.5761C11.6846 17.6518 11.5284 17.78 11.4185 17.9444C11.3086 18.1089 11.25 18.3022 11.25 18.5C11.25 18.7652 11.3554 19.0196 11.5429 19.2071C11.7304 19.3946 11.9848 19.5 12.25 19.5ZM17.25 19.5C17.4478 19.5 17.6411 19.4414 17.8056 19.3315C17.97 19.2216 18.0982 19.0654 18.1739 18.8827C18.2496 18.7 18.2694 18.4989 18.2308 18.3049C18.1922 18.1109 18.097 17.9327 17.9571 17.7929C17.8173 17.653 17.6391 17.5578 17.4451 17.5192C17.2511 17.4806 17.05 17.5004 16.8673 17.5761C16.6846 17.6518 16.5284 17.78 16.4185 17.9444C16.3086 18.1089 16.25 18.3022 16.25 18.5C16.25 18.7652 16.3554 19.0196 16.5429 19.2071C16.7304 19.3946 16.9848 19.5 17.25 19.5ZM17.25 15.5C17.4478 15.5 17.6411 15.4414 17.8056 15.3315C17.97 15.2216 18.0982 15.0654 18.1739 14.8827C18.2496 14.7 18.2694 14.4989 18.2308 14.3049C18.1922 14.1109 18.097 13.9327 17.9571 13.7929C17.8173 13.653 17.6391 13.5578 17.4451 13.5192C17.2511 13.4806 17.05 13.5004 16.8673 13.5761C16.6846 13.6518 16.5284 13.78 16.4185 13.9444C16.3086 14.1089 16.25 14.3022 16.25 14.5C16.25 14.7652 16.3554 15.0196 16.5429 15.2071C16.7304 15.3946 16.9848 15.5 17.25 15.5ZM12.25 15.5C12.4478 15.5 12.6411 15.4414 12.8056 15.3315C12.97 15.2216 13.0982 15.0654 13.1739 14.8827C13.2496 14.7 13.2694 14.4989 13.2308 14.3049C13.1922 14.1109 13.097 13.9327 12.9571 13.7929C12.8173 13.653 12.6391 13.5578 12.4451 13.5192C12.2511 13.4806 12.05 13.5004 11.8673 13.5761C11.6846 13.6518 11.5284 13.78 11.4185 13.9444C11.3086 14.1089 11.25 14.3022 11.25 14.5C11.25 14.7652 11.3554 15.0196 11.5429 15.2071C11.7304 15.3946 11.9848 15.5 12.25 15.5ZM19.25 3.5H18.25V2.5C18.25 2.23478 18.1446 1.98043 17.9571 1.79289C17.7696 1.60536 17.5152 1.5 17.25 1.5C16.9848 1.5 16.7304 1.60536 16.5429 1.79289C16.3554 1.98043 16.25 2.23478 16.25 2.5V3.5H8.25V2.5C8.25 2.23478 8.14464 1.98043 7.95711 1.79289C7.76957 1.60536 7.51522 1.5 7.25 1.5C6.98478 1.5 6.73043 1.60536 6.54289 1.79289C6.35536 1.98043 6.25 2.23478 6.25 2.5V3.5H5.25C4.45435 3.5 3.69129 3.81607 3.12868 4.37868C2.56607 4.94129 2.25 5.70435 2.25 6.5V20.5C2.25 21.2956 2.56607 22.0587 3.12868 22.6213C3.69129 23.1839 4.45435 23.5 5.25 23.5H19.25C20.0456 23.5 20.8087 23.1839 21.3713 22.6213C21.9339 22.0587 22.25 21.2956 22.25 20.5V6.5C22.25 5.70435 21.9339 4.94129 21.3713 4.37868C20.8087 3.81607 20.0456 3.5 19.25 3.5ZM20.25 20.5C20.25 20.7652 20.1446 21.0196 19.9571 21.2071C19.7696 21.3946 19.5152 21.5 19.25 21.5H5.25C4.98478 21.5 4.73043 21.3946 4.54289 21.2071C4.35536 21.0196 4.25 20.7652 4.25 20.5V11.5H20.25V20.5ZM20.25 9.5H4.25V6.5C4.25 6.23478 4.35536 5.98043 4.54289 5.79289C4.73043 5.60536 4.98478 5.5 5.25 5.5H6.25V6.5C6.25 6.76522 6.35536 7.01957 6.54289 7.20711C6.73043 7.39464 6.98478 7.5 7.25 7.5C7.51522 7.5 7.76957 7.39464 7.95711 7.20711C8.14464 7.01957 8.25 6.76522 8.25 6.5V5.5H16.25V6.5C16.25 6.76522 16.3554 7.01957 16.5429 7.20711C16.7304 7.39464 16.9848 7.5 17.25 7.5C17.5152 7.5 17.7696 7.39464 17.9571 7.20711C18.1446 7.01957 18.25 6.76522 18.25 6.5V5.5H19.25C19.5152 5.5 19.7696 5.60536 19.9571 5.79289C20.1446 5.98043 20.25 6.23478 20.25 6.5V9.5ZM7.25 15.5C7.44778 15.5 7.64112 15.4414 7.80557 15.3315C7.97002 15.2216 8.09819 15.0654 8.17388 14.8827C8.24957 14.7 8.26937 14.4989 8.23079 14.3049C8.1922 14.1109 8.09696 13.9327 7.95711 13.7929C7.81725 13.653 7.63907 13.5578 7.44509 13.5192C7.25111 13.4806 7.05004 13.5004 6.86732 13.5761C6.68459 13.6518 6.52841 13.78 6.41853 13.9444C6.30865 14.1089 6.25 14.3022 6.25 14.5C6.25 14.7652 6.35536 15.0196 6.54289 15.2071C6.73043 15.3946 6.98478 15.5 7.25 15.5ZM7.25 19.5C7.44778 19.5 7.64112 19.4414 7.80557 19.3315C7.97002 19.2216 8.09819 19.0654 8.17388 18.8827C8.24957 18.7 8.26937 18.4989 8.23079 18.3049C8.1922 18.1109 8.09696 17.9327 7.95711 17.7929C7.81725 17.653 7.63907 17.5578 7.44509 17.5192C7.25111 17.4806 7.05004 17.5004 6.86732 17.5761C6.68459 17.6518 6.52841 17.78 6.41853 17.9444C6.30865 18.1089 6.25 18.3022 6.25 18.5C6.25 18.7652 6.35536 19.0196 6.54289 19.2071C6.73043 19.3946 6.98478 19.5 7.25 19.5Z" fill="#F7F7F7"/>
</svg>
