<svg width="24" height="24" viewBox="0 0 24 24" fill="none" xmlns="http://www.w3.org/2000/svg">
<g clip-path="url(#clip0_1011_67)">
<rect width="24" height="24" rx="8" fill="black"/>
<path d="M92.3999 -83.944C90.9868 -85.7517 89.3056 -87.1865 87.4533 -88.1657C85.601 -89.1448 83.6142 -89.6489 81.6076 -89.6489C79.601 -89.6489 77.6142 -89.1448 75.7619 -88.1657C73.9095 -87.1865 72.2284 -85.7517 70.8153 -83.944L-42.4278 59.9337L-90.0051 -0.626105C-91.4723 -2.42435 -93.2042 -3.83833 -95.1021 -4.7873C-96.9999 -5.73628 -99.0265 -6.20166 -101.066 -6.15689C-103.106 -6.11211 -105.118 -5.55806 -106.989 -4.52636C-108.86 -3.49465 -110.552 -2.0055 -111.97 -0.14393C-113.387 1.71764 -114.501 3.91517 -115.249 6.32319C-115.997 8.73122 -116.364 11.3026 -116.329 13.8905C-116.293 16.4783 -115.857 19.0321 -115.044 21.4058C-114.231 23.7796 -113.057 25.9269 -111.59 27.7251L-53.2201 101.785C-51.807 103.593 -50.1258 105.028 -48.2735 106.007C-46.4212 106.986 -44.4344 107.49 -42.4278 107.49C-40.4212 107.49 -38.4344 106.986 -36.5821 106.007C-34.7298 105.028 -33.0486 103.593 -31.6355 101.785L92.3999 -55.5928C93.9428 -57.3988 95.1741 -59.5908 96.0164 -62.0305C96.8586 -64.4702 97.2934 -67.1049 97.2934 -69.7684C97.2934 -72.4319 96.8586 -75.0665 96.0164 -77.5063C95.1741 -79.946 93.9428 -82.138 92.3999 -83.944V-83.944Z" fill="white"/>
</g>
<rect x="1.5" y="1.5" width="21" height="21" rx="6.5" stroke="#F05200" stroke-width="3"/>
<defs>
<clipPath id="clip0_1011_67">
<rect width="24" height="24" rx="8" fill="white"/>
</clipPath>
</defs>
</svg>
