<svg width="39" height="38" viewBox="0 0 39 38" fill="none" xmlns="http://www.w3.org/2000/svg">
<rect x="0.25" width="38" height="38" rx="12" fill="#F7F7F7"/>
<path d="M19.25 26C19.4478 26 19.6411 25.9414 19.8056 25.8315C19.97 25.7216 20.0982 25.5654 20.1739 25.3827C20.2496 25.2 20.2694 24.9989 20.2308 24.8049C20.1922 24.6109 20.097 24.4327 19.9571 24.2929C19.8173 24.153 19.6391 24.0578 19.4451 24.0192C19.2511 23.9806 19.05 24.0004 18.8673 24.0761C18.6846 24.1518 18.5284 24.28 18.4185 24.4444C18.3086 24.6089 18.25 24.8022 18.25 25C18.25 25.2652 18.3554 25.5196 18.5429 25.7071C18.7304 25.8946 18.9848 26 19.25 26ZM24.25 26C24.4478 26 24.6411 25.9414 24.8056 25.8315C24.97 25.7216 25.0982 25.5654 25.1739 25.3827C25.2496 25.2 25.2694 24.9989 25.2308 24.8049C25.1922 24.6109 25.097 24.4327 24.9571 24.2929C24.8173 24.153 24.6391 24.0578 24.4451 24.0192C24.2511 23.9806 24.05 24.0004 23.8673 24.0761C23.6846 24.1518 23.5284 24.28 23.4185 24.4444C23.3086 24.6089 23.25 24.8022 23.25 25C23.25 25.2652 23.3554 25.5196 23.5429 25.7071C23.7304 25.8946 23.9848 26 24.25 26ZM24.25 22C24.4478 22 24.6411 21.9414 24.8056 21.8315C24.97 21.7216 25.0982 21.5654 25.1739 21.3827C25.2496 21.2 25.2694 20.9989 25.2308 20.8049C25.1922 20.6109 25.097 20.4327 24.9571 20.2929C24.8173 20.153 24.6391 20.0578 24.4451 20.0192C24.2511 19.9806 24.05 20.0004 23.8673 20.0761C23.6846 20.1518 23.5284 20.28 23.4185 20.4444C23.3086 20.6089 23.25 20.8022 23.25 21C23.25 21.2652 23.3554 21.5196 23.5429 21.7071C23.7304 21.8946 23.9848 22 24.25 22ZM19.25 22C19.4478 22 19.6411 21.9414 19.8056 21.8315C19.97 21.7216 20.0982 21.5654 20.1739 21.3827C20.2496 21.2 20.2694 20.9989 20.2308 20.8049C20.1922 20.6109 20.097 20.4327 19.9571 20.2929C19.8173 20.153 19.6391 20.0578 19.4451 20.0192C19.2511 19.9806 19.05 20.0004 18.8673 20.0761C18.6846 20.1518 18.5284 20.28 18.4185 20.4444C18.3086 20.6089 18.25 20.8022 18.25 21C18.25 21.2652 18.3554 21.5196 18.5429 21.7071C18.7304 21.8946 18.9848 22 19.25 22ZM26.25 10H25.25V9C25.25 8.73478 25.1446 8.48043 24.9571 8.29289C24.7696 8.10536 24.5152 8 24.25 8C23.9848 8 23.7304 8.10536 23.5429 8.29289C23.3554 8.48043 23.25 8.73478 23.25 9V10H15.25V9C15.25 8.73478 15.1446 8.48043 14.9571 8.29289C14.7696 8.10536 14.5152 8 14.25 8C13.9848 8 13.7304 8.10536 13.5429 8.29289C13.3554 8.48043 13.25 8.73478 13.25 9V10H12.25C11.4544 10 10.6913 10.3161 10.1287 10.8787C9.56607 11.4413 9.25 12.2044 9.25 13V27C9.25 27.7956 9.56607 28.5587 10.1287 29.1213C10.6913 29.6839 11.4544 30 12.25 30H26.25C27.0456 30 27.8087 29.6839 28.3713 29.1213C28.9339 28.5587 29.25 27.7956 29.25 27V13C29.25 12.2044 28.9339 11.4413 28.3713 10.8787C27.8087 10.3161 27.0456 10 26.25 10ZM27.25 27C27.25 27.2652 27.1446 27.5196 26.9571 27.7071C26.7696 27.8946 26.5152 28 26.25 28H12.25C11.9848 28 11.7304 27.8946 11.5429 27.7071C11.3554 27.5196 11.25 27.2652 11.25 27V18H27.25V27ZM27.25 16H11.25V13C11.25 12.7348 11.3554 12.4804 11.5429 12.2929C11.7304 12.1054 11.9848 12 12.25 12H13.25V13C13.25 13.2652 13.3554 13.5196 13.5429 13.7071C13.7304 13.8946 13.9848 14 14.25 14C14.5152 14 14.7696 13.8946 14.9571 13.7071C15.1446 13.5196 15.25 13.2652 15.25 13V12H23.25V13C23.25 13.2652 23.3554 13.5196 23.5429 13.7071C23.7304 13.8946 23.9848 14 24.25 14C24.5152 14 24.7696 13.8946 24.9571 13.7071C25.1446 13.5196 25.25 13.2652 25.25 13V12H26.25C26.5152 12 26.7696 12.1054 26.9571 12.2929C27.1446 12.4804 27.25 12.7348 27.25 13V16ZM14.25 22C14.4478 22 14.6411 21.9414 14.8056 21.8315C14.97 21.7216 15.0982 21.5654 15.1739 21.3827C15.2496 21.2 15.2694 20.9989 15.2308 20.8049C15.1922 20.6109 15.097 20.4327 14.9571 20.2929C14.8173 20.153 14.6391 20.0578 14.4451 20.0192C14.2511 19.9806 14.05 20.0004 13.8673 20.0761C13.6846 20.1518 13.5284 20.28 13.4185 20.4444C13.3086 20.6089 13.25 20.8022 13.25 21C13.25 21.2652 13.3554 21.5196 13.5429 21.7071C13.7304 21.8946 13.9848 22 14.25 22ZM14.25 26C14.4478 26 14.6411 25.9414 14.8056 25.8315C14.97 25.7216 15.0982 25.5654 15.1739 25.3827C15.2496 25.2 15.2694 24.9989 15.2308 24.8049C15.1922 24.6109 15.097 24.4327 14.9571 24.2929C14.8173 24.153 14.6391 24.0578 14.4451 24.0192C14.2511 23.9806 14.05 24.0004 13.8673 24.0761C13.6846 24.1518 13.5284 24.28 13.4185 24.4444C13.3086 24.6089 13.25 24.8022 13.25 25C13.25 25.2652 13.3554 25.5196 13.5429 25.7071C13.7304 25.8946 13.9848 26 14.25 26Z" fill="black"/>
</svg>
