<svg width="38" height="38" viewBox="0 0 38 38" fill="none" xmlns="http://www.w3.org/2000/svg">
<rect width="38" height="38" rx="12" fill="#F7F7F7"/>
<path d="M28.32 16.55L26.43 15.92L27.32 14.14C27.4102 13.9537 27.4404 13.744 27.4064 13.5398C27.3723 13.3356 27.2758 13.147 27.13 13L25 10.87C24.8522 10.7221 24.6618 10.6242 24.4555 10.5901C24.2493 10.556 24.0375 10.5875 23.85 10.68L22.07 11.57L21.44 9.68C21.3735 9.483 21.2472 9.31163 21.0787 9.18975C20.9102 9.06787 20.7079 9.00155 20.5 9H17.5C17.2904 8.99946 17.0858 9.06482 16.9154 9.18685C16.7449 9.30887 16.6171 9.48138 16.55 9.68L15.92 11.57L14.14 10.68C13.9537 10.5898 13.744 10.5596 13.5398 10.5936C13.3356 10.6277 13.147 10.7242 13 10.87L10.87 13C10.7221 13.1478 10.6242 13.3382 10.5901 13.5445C10.556 13.7507 10.5875 13.9625 10.68 14.15L11.57 15.93L9.68 16.56C9.483 16.6265 9.31163 16.7528 9.18975 16.9213C9.06787 17.0898 9.00155 17.2921 9 17.5V20.5C8.99946 20.7096 9.06482 20.9142 9.18685 21.0846C9.30887 21.2551 9.48138 21.3829 9.68 21.45L11.57 22.08L10.68 23.86C10.5898 24.0463 10.5596 24.256 10.5936 24.4602C10.6277 24.6644 10.7242 24.853 10.87 25L13 27.13C13.1478 27.2779 13.3382 27.3758 13.5445 27.4099C13.7507 27.444 13.9625 27.4125 14.15 27.32L15.93 26.43L16.56 28.32C16.6271 28.5186 16.7549 28.6911 16.9254 28.8132C17.0958 28.9352 17.3004 29.0005 17.51 29H20.51C20.7196 29.0005 20.9242 28.9352 21.0946 28.8132C21.2651 28.6911 21.3929 28.5186 21.46 28.32L22.09 26.43L23.87 27.32C24.0551 27.4079 24.2628 27.4369 24.4649 27.4029C24.667 27.3689 24.8538 27.2737 25 27.13L27.13 25C27.2779 24.8522 27.3758 24.6618 27.4099 24.4555C27.444 24.2493 27.4125 24.0375 27.32 23.85L26.43 22.07L28.32 21.44C28.517 21.3735 28.6884 21.2472 28.8103 21.0787C28.9321 20.9102 28.9985 20.7079 29 20.5V17.5C29.0005 17.2904 28.9352 17.0858 28.8132 16.9154C28.6911 16.7449 28.5186 16.6171 28.32 16.55ZM27 19.78L25.8 20.18C25.5241 20.2695 25.2709 20.418 25.0581 20.6151C24.8452 20.8122 24.6778 21.0533 24.5675 21.3216C24.4571 21.5899 24.4064 21.879 24.419 22.1688C24.4315 22.4586 24.5069 22.7422 24.64 23L25.21 24.14L24.11 25.24L23 24.64C22.7436 24.5122 22.4627 24.4411 22.1763 24.4313C21.89 24.4215 21.6049 24.4734 21.3403 24.5834C21.0758 24.6934 20.8379 24.8589 20.6429 25.0688C20.4479 25.2787 20.3003 25.5281 20.21 25.8L19.81 27H18.22L17.82 25.8C17.7305 25.5241 17.582 25.2709 17.3849 25.0581C17.1878 24.8452 16.9467 24.6778 16.6784 24.5675C16.4101 24.4571 16.1211 24.4064 15.8312 24.419C15.5414 24.4315 15.2578 24.5069 15 24.64L13.86 25.21L12.76 24.11L13.36 23C13.4931 22.7422 13.5685 22.4586 13.581 22.1688C13.5936 21.879 13.5429 21.5899 13.4325 21.3216C13.3222 21.0533 13.1548 20.8122 12.9419 20.6151C12.7291 20.418 12.4759 20.2695 12.2 20.18L11 19.78V18.22L12.2 17.82C12.4759 17.7305 12.7291 17.582 12.9419 17.3849C13.1548 17.1878 13.3222 16.9467 13.4325 16.6784C13.5429 16.4101 13.5936 16.1211 13.581 15.8312C13.5685 15.5414 13.4931 15.2578 13.36 15L12.79 13.89L13.89 12.79L15 13.36C15.2578 13.4931 15.5414 13.5685 15.8312 13.581C16.1211 13.5936 16.4101 13.5429 16.6784 13.4325C16.9467 13.3222 17.1878 13.1548 17.3849 12.9419C17.582 12.7291 17.7305 12.4759 17.82 12.2L18.22 11H19.78L20.18 12.2C20.2695 12.4759 20.418 12.7291 20.6151 12.9419C20.8122 13.1548 21.0533 13.3222 21.3216 13.4325C21.5899 13.5429 21.879 13.5936 22.1688 13.581C22.4586 13.5685 22.7422 13.4931 23 13.36L24.14 12.79L25.24 13.89L24.64 15C24.5122 15.2564 24.4411 15.5373 24.4313 15.8237C24.4215 16.11 24.4734 16.3951 24.5834 16.6597C24.6934 16.9242 24.8589 17.1621 25.0688 17.3571C25.2787 17.5521 25.5281 17.6997 25.8 17.79L27 18.19V19.78ZM19 15C18.2089 15 17.4355 15.2346 16.7777 15.6741C16.1199 16.1137 15.6072 16.7384 15.3045 17.4693C15.0017 18.2002 14.9225 19.0044 15.0769 19.7804C15.2312 20.5563 15.6122 21.269 16.1716 21.8284C16.731 22.3878 17.4437 22.7688 18.2196 22.9231C18.9956 23.0775 19.7998 22.9983 20.5307 22.6955C21.2616 22.3928 21.8864 21.8801 22.3259 21.2223C22.7654 20.5645 23 19.7911 23 19C23 17.9391 22.5786 16.9217 21.8284 16.1716C21.0783 15.4214 20.0609 15 19 15V15ZM19 21C18.6044 21 18.2178 20.8827 17.8889 20.6629C17.56 20.4432 17.3036 20.1308 17.1522 19.7654C17.0009 19.3999 16.9613 18.9978 17.0384 18.6098C17.1156 18.2219 17.3061 17.8655 17.5858 17.5858C17.8655 17.3061 18.2219 17.1156 18.6098 17.0384C18.9978 16.9613 19.3999 17.0009 19.7654 17.1522C20.1308 17.3036 20.4432 17.56 20.6629 17.8889C20.8827 18.2178 21 18.6044 21 19C21 19.5304 20.7893 20.0391 20.4142 20.4142C20.0391 20.7893 19.5304 21 19 21Z" fill="black"/>
</svg>
