<svg width="39" height="38" viewBox="0 0 39 38" fill="none" xmlns="http://www.w3.org/2000/svg">
<rect x="0.5" width="38" height="38" rx="12" fill="#F7F7F7"/>
<path d="M19.5 16C18.9067 16 18.3266 16.1759 17.8333 16.5056C17.3399 16.8352 16.9554 17.3038 16.7284 17.8519C16.5013 18.4001 16.4419 19.0033 16.5576 19.5853C16.6734 20.1672 16.9591 20.7018 17.3787 21.1213C17.7982 21.5409 18.3328 21.8266 18.9147 21.9424C19.4967 22.0581 20.0999 21.9987 20.6481 21.7716C21.1962 21.5446 21.6648 21.1601 21.9944 20.6667C22.3241 20.1734 22.5 19.5933 22.5 19C22.5 18.2044 22.1839 17.4413 21.6213 16.8787C21.0587 16.3161 20.2956 16 19.5 16ZM19.5 20C19.3022 20 19.1089 19.9414 18.9444 19.8315C18.78 19.7216 18.6518 19.5654 18.5761 19.3827C18.5004 19.2 18.4806 18.9989 18.5192 18.8049C18.5578 18.6109 18.653 18.4327 18.7929 18.2929C18.9327 18.153 19.1109 18.0578 19.3049 18.0192C19.4989 17.9806 19.7 18.0004 19.8827 18.0761C20.0654 18.1518 20.2216 18.28 20.3315 18.4444C20.4414 18.6089 20.5 18.8022 20.5 19C20.5 19.2652 20.3946 19.5196 20.2071 19.7071C20.0196 19.8946 19.7652 20 19.5 20ZM28.5 18H27.43C27.2068 16.24 26.4049 14.6041 25.1504 13.3496C23.8959 12.0951 22.26 11.2932 20.5 11.07V10C20.5 9.73478 20.3946 9.48043 20.2071 9.29289C20.0196 9.10536 19.7652 9 19.5 9C19.2348 9 18.9804 9.10536 18.7929 9.29289C18.6054 9.48043 18.5 9.73478 18.5 10V11.07C16.74 11.2932 15.1041 12.0951 13.8496 13.3496C12.5951 14.6041 11.7932 16.24 11.57 18H10.5C10.2348 18 9.98043 18.1054 9.79289 18.2929C9.60536 18.4804 9.5 18.7348 9.5 19C9.5 19.2652 9.60536 19.5196 9.79289 19.7071C9.98043 19.8946 10.2348 20 10.5 20H11.57C11.7932 21.76 12.5951 23.3959 13.8496 24.6504C15.1041 25.9049 16.74 26.7068 18.5 26.93V28C18.5 28.2652 18.6054 28.5196 18.7929 28.7071C18.9804 28.8946 19.2348 29 19.5 29C19.7652 29 20.0196 28.8946 20.2071 28.7071C20.3946 28.5196 20.5 28.2652 20.5 28V26.93C22.26 26.7068 23.8959 25.9049 25.1504 24.6504C26.4049 23.3959 27.2068 21.76 27.43 20H28.5C28.7652 20 29.0196 19.8946 29.2071 19.7071C29.3946 19.5196 29.5 19.2652 29.5 19C29.5 18.7348 29.3946 18.4804 29.2071 18.2929C29.0196 18.1054 28.7652 18 28.5 18ZM19.5 25C18.3133 25 17.1533 24.6481 16.1666 23.9888C15.1799 23.3295 14.4108 22.3925 13.9567 21.2961C13.5026 20.1997 13.3838 18.9933 13.6153 17.8295C13.8468 16.6656 14.4182 15.5965 15.2574 14.7574C16.0965 13.9182 17.1656 13.3468 18.3295 13.1153C19.4933 12.8838 20.6997 13.0026 21.7961 13.4567C22.8925 13.9108 23.8295 14.6799 24.4888 15.6666C25.1481 16.6533 25.5 17.8133 25.5 19C25.5 20.5913 24.8679 22.1174 23.7426 23.2426C22.6174 24.3679 21.0913 25 19.5 25Z" fill="black"/>
</svg>
