<svg width="39" height="38" viewBox="0 0 39 38" fill="none" xmlns="http://www.w3.org/2000/svg">
<rect x="0.75" width="38" height="38" rx="12" fill="#F7F7F7"/>
<path d="M23.75 21H15.75C15.4848 21 15.2304 21.1054 15.0429 21.2929C14.8554 21.4804 14.75 21.7348 14.75 22C14.75 22.2652 14.8554 22.5196 15.0429 22.7071C15.2304 22.8946 15.4848 23 15.75 23H23.75C24.0152 23 24.2696 22.8946 24.4571 22.7071C24.6446 22.5196 24.75 22.2652 24.75 22C24.75 21.7348 24.6446 21.4804 24.4571 21.2929C24.2696 21.1054 24.0152 21 23.75 21ZM23.75 17H17.75C17.4848 17 17.2304 17.1054 17.0429 17.2929C16.8554 17.4804 16.75 17.7348 16.75 18C16.75 18.2652 16.8554 18.5196 17.0429 18.7071C17.2304 18.8946 17.4848 19 17.75 19H23.75C24.0152 19 24.2696 18.8946 24.4571 18.7071C24.6446 18.5196 24.75 18.2652 24.75 18C24.75 17.7348 24.6446 17.4804 24.4571 17.2929C24.2696 17.1054 24.0152 17 23.75 17ZM27.75 11H24.75V10C24.75 9.73478 24.6446 9.48043 24.4571 9.29289C24.2696 9.10536 24.0152 9 23.75 9C23.4848 9 23.2304 9.10536 23.0429 9.29289C22.8554 9.48043 22.75 9.73478 22.75 10V11H20.75V10C20.75 9.73478 20.6446 9.48043 20.4571 9.29289C20.2696 9.10536 20.0152 9 19.75 9C19.4848 9 19.2304 9.10536 19.0429 9.29289C18.8554 9.48043 18.75 9.73478 18.75 10V11H16.75V10C16.75 9.73478 16.6446 9.48043 16.4571 9.29289C16.2696 9.10536 16.0152 9 15.75 9C15.4848 9 15.2304 9.10536 15.0429 9.29289C14.8554 9.48043 14.75 9.73478 14.75 10V11H11.75C11.4848 11 11.2304 11.1054 11.0429 11.2929C10.8554 11.4804 10.75 11.7348 10.75 12V26C10.75 26.7956 11.0661 27.5587 11.6287 28.1213C12.1913 28.6839 12.9544 29 13.75 29H25.75C26.5456 29 27.3087 28.6839 27.8713 28.1213C28.4339 27.5587 28.75 26.7956 28.75 26V12C28.75 11.7348 28.6446 11.4804 28.4571 11.2929C28.2696 11.1054 28.0152 11 27.75 11V11ZM26.75 26C26.75 26.2652 26.6446 26.5196 26.4571 26.7071C26.2696 26.8946 26.0152 27 25.75 27H13.75C13.4848 27 13.2304 26.8946 13.0429 26.7071C12.8554 26.5196 12.75 26.2652 12.75 26V13H14.75V14C14.75 14.2652 14.8554 14.5196 15.0429 14.7071C15.2304 14.8946 15.4848 15 15.75 15C16.0152 15 16.2696 14.8946 16.4571 14.7071C16.6446 14.5196 16.75 14.2652 16.75 14V13H18.75V14C18.75 14.2652 18.8554 14.5196 19.0429 14.7071C19.2304 14.8946 19.4848 15 19.75 15C20.0152 15 20.2696 14.8946 20.4571 14.7071C20.6446 14.5196 20.75 14.2652 20.75 14V13H22.75V14C22.75 14.2652 22.8554 14.5196 23.0429 14.7071C23.2304 14.8946 23.4848 15 23.75 15C24.0152 15 24.2696 14.8946 24.4571 14.7071C24.6446 14.5196 24.75 14.2652 24.75 14V13H26.75V26Z" fill="black"/>
</svg>
