<svg width="21" height="22" viewBox="0 0 21 22" fill="none" xmlns="http://www.w3.org/2000/svg">
<path d="M14.875 8.52373C14.711 8.36076 14.4893 8.26929 14.2581 8.26929C14.0269 8.26929 13.8052 8.36076 13.6412 8.52373L10.5 11.6212L7.40249 8.52373C7.23854 8.36076 7.01677 8.26929 6.78561 8.26929C6.55445 8.26929 6.33268 8.36076 6.16874 8.52373C6.08672 8.60507 6.02163 8.70185 5.97721 8.80848C5.93278 8.9151 5.90991 9.02947 5.90991 9.14498C5.90991 9.26049 5.93278 9.37486 5.97721 9.48149C6.02163 9.58811 6.08672 9.68489 6.16874 9.76623L9.87874 13.4762C9.96008 13.5582 10.0569 13.6233 10.1635 13.6678C10.2701 13.7122 10.3845 13.7351 10.5 13.7351C10.6155 13.7351 10.7299 13.7122 10.8365 13.6678C10.9431 13.6233 11.0399 13.5582 11.1212 13.4762L14.875 9.76623C14.957 9.68489 15.0221 9.58811 15.0665 9.48149C15.1109 9.37486 15.1338 9.26049 15.1338 9.14498C15.1338 9.02947 15.1109 8.9151 15.0665 8.80848C15.0221 8.70185 14.957 8.60507 14.875 8.52373Z" fill="#FF6C33"/>
</svg>
