<svg width="19" height="18" viewBox="0 0 19 18" fill="none" xmlns="http://www.w3.org/2000/svg">
<path d="M8.05274 15.3772C8.05273 15.2672 8.02852 15.1586 7.98183 15.059C7.93515 14.9594 7.86713 14.8713 7.7826 14.8009C7.69807 14.7305 7.5991 14.6796 7.49269 14.6517C7.38629 14.6239 7.27505 14.6197 7.16688 14.6397C6.18507 14.8198 4.94545 14.8469 4.61585 13.9212C4.32846 13.2042 3.85241 12.5783 3.23817 12.1099C3.19434 12.0861 3.15258 12.0586 3.11329 12.0279C3.05954 11.8861 2.96405 11.7639 2.83944 11.6775C2.71483 11.591 2.56694 11.5444 2.41529 11.5437H2.41163C2.21333 11.5437 2.02308 11.6222 1.88252 11.762C1.74195 11.9019 1.66253 12.0918 1.66163 12.2901C1.6587 12.9016 2.26988 13.2935 2.51783 13.4261C2.81021 13.7198 3.0452 14.0656 3.2107 14.4456C3.4839 15.2132 4.27784 16.3777 6.56007 16.2276C6.56082 16.254 6.56153 16.2789 6.5619 16.3016L6.56519 16.5022C6.56519 16.7012 6.64421 16.8919 6.78486 17.0326C6.92551 17.1732 7.11628 17.2522 7.31519 17.2522C7.5141 17.2522 7.70487 17.1732 7.84552 17.0326C7.98617 16.8919 8.06519 16.7012 8.06519 16.5022L8.06153 16.2635C8.05787 16.1213 8.05274 15.9155 8.05274 15.3772ZM16.053 4.0327C16.0768 3.93895 16.1002 3.83495 16.1207 3.71776C16.242 2.88195 16.1363 2.02891 15.8146 1.24801C15.774 1.14621 15.7116 1.05452 15.6319 0.979366C15.5521 0.904213 15.4568 0.847417 15.3528 0.812961C15.0858 0.722871 14.1 0.545624 12.2147 1.75046C10.6476 1.38168 9.01634 1.38168 7.44924 1.75046C5.57167 0.563271 4.59095 0.724371 4.32655 0.809331C4.21994 0.842391 4.12209 0.898886 4.04016 0.974675C3.95822 1.05046 3.89429 1.14362 3.85303 1.24733C3.52476 2.04322 3.42016 2.91366 3.55054 3.76466C3.56886 3.86061 3.58863 3.94924 3.60914 4.03053C2.98782 4.85811 2.65687 5.86755 2.66761 6.90235C2.66559 7.13323 2.67623 7.36404 2.69947 7.59376C2.94997 11.0457 5.19997 12.082 6.76771 12.438C6.73512 12.5318 6.70546 12.6321 6.67909 12.7383C6.63209 12.9313 6.66354 13.135 6.76654 13.3048C6.86953 13.4746 7.03567 13.5967 7.22852 13.6442C7.42136 13.6917 7.62518 13.6608 7.79527 13.5583C7.96536 13.4557 8.08785 13.2899 8.13587 13.0972C8.18359 12.8473 8.30591 12.6177 8.48671 12.4387C8.59602 12.343 8.67517 12.2176 8.71452 12.0778C8.75387 11.9379 8.75173 11.7896 8.70835 11.6509C8.66498 11.5123 8.58224 11.3892 8.4702 11.2967C8.35816 11.2042 8.22165 11.1462 8.07728 11.1299C5.48671 10.834 4.36207 9.77858 4.19288 7.45607C4.17414 7.27212 4.16571 7.08726 4.16761 6.90236C4.15558 6.16485 4.39924 5.44592 4.85719 4.86769C4.9032 4.80741 4.95221 4.74948 5.00404 4.69411C5.09586 4.59136 5.1576 4.4653 5.18247 4.32976C5.20735 4.19422 5.19439 4.05446 5.14504 3.9258C5.09444 3.79045 5.05548 3.65102 5.02858 3.50905C4.96748 3.10533 4.98752 2.69349 5.08753 2.29762C5.73938 2.48172 6.35287 2.7814 6.89878 3.18238C6.98906 3.24251 7.09121 3.28252 7.19831 3.29971C7.30541 3.3169 7.41496 3.31085 7.51951 3.28199C9.03535 2.87062 10.6335 2.87087 12.1492 3.28274C12.2543 3.31157 12.3644 3.31727 12.4719 3.29944C12.5795 3.28161 12.6819 3.24068 12.7721 3.17947C13.3154 2.77683 13.9263 2.47447 14.576 2.28665C14.6756 2.67302 14.6979 3.07524 14.6416 3.47024C14.6144 3.62589 14.572 3.77849 14.5149 3.92581C14.4655 4.05447 14.4526 4.19424 14.4774 4.32978C14.5023 4.46531 14.564 4.59137 14.6559 4.69412C14.7137 4.7593 14.7716 4.82962 14.8236 4.89553C15.2783 5.46397 15.5178 6.17464 15.5 6.90235C15.5014 7.09706 15.492 7.29169 15.4718 7.48536C15.3067 9.7771 14.1776 10.8333 11.575 11.1299C11.4306 11.1463 11.294 11.2044 11.182 11.297C11.07 11.3896 10.9873 11.5127 10.9439 11.6515C10.9006 11.7902 10.8985 11.9385 10.9379 12.0784C10.9773 12.2183 11.0565 12.3437 11.1659 12.4395C11.3524 12.6232 11.475 12.862 11.5156 13.1206C11.5663 13.3214 11.5896 13.5281 11.5849 13.7351V15.4856C11.5775 15.9712 11.5775 16.3352 11.5775 16.5022C11.5775 16.7011 11.6565 16.8919 11.7972 17.0325C11.9378 17.1732 12.1286 17.2522 12.3275 17.2522C12.5264 17.2522 12.7172 17.1732 12.8578 17.0325C12.9985 16.8919 13.0775 16.7011 13.0775 16.5022C13.0775 16.3396 13.0775 15.9829 13.0848 15.4973V13.7351C13.0909 13.4035 13.0518 13.0726 12.9687 12.7515C12.945 12.6461 12.9159 12.5419 12.8816 12.4395C14.0225 12.2499 15.0592 11.6617 15.8071 10.7794C16.5549 9.89718 16.9654 8.77817 16.9656 7.6216C16.9903 7.38267 17.0018 7.14255 17 6.90235C17.0167 5.86643 16.683 4.85525 16.053 4.03272L16.053 4.0327Z" fill="#838383"/>
</svg>
