<svg width="18" height="18" viewBox="0 0 18 18" fill="none" xmlns="http://www.w3.org/2000/svg">
<g clip-path="url(#clip0_1011_280)">
<path d="M16.9516 7.50297C16.9204 7.33 16.8294 7.1735 16.6945 7.06079C16.5597 6.94808 16.3895 6.88631 16.2137 6.88626H9.14992C9.05142 6.88624 8.95388 6.90562 8.86288 6.9433C8.77187 6.98098 8.68918 7.03623 8.61953 7.10588C8.54988 7.17553 8.49464 7.25821 8.45696 7.34922C8.41927 7.44023 8.39989 7.53776 8.39992 7.63626V10.5374C8.39989 10.6359 8.41927 10.7334 8.45696 10.8244C8.49464 10.9154 8.54988 10.9981 8.61953 11.0678C8.68918 11.1374 8.77187 11.1927 8.86288 11.2303C8.95388 11.268 9.05142 11.2874 9.14992 11.2874H12.1217C11.91 11.6448 11.6197 11.9494 11.2728 12.178C10.639 12.5799 9.90022 12.7848 9.14992 12.7669C8.37177 12.758 7.61623 12.5041 6.99066 12.0412C6.36508 11.5783 5.90131 10.9301 5.66524 10.1885L5.66502 10.1873C5.40232 9.41732 5.40232 8.58199 5.66502 7.81203L5.6652 7.8108C5.90143 7.06942 6.36528 6.42134 6.99084 5.95862C7.6164 5.4959 8.37187 5.24207 9.14992 5.23319C9.58223 5.22327 10.0122 5.29884 10.4153 5.45558C10.8183 5.61231 11.1864 5.84712 11.4984 6.14652C11.6401 6.28194 11.8292 6.35653 12.0252 6.35434C12.2212 6.35215 12.4086 6.27335 12.5472 6.1348L14.6983 3.98367C14.7696 3.9125 14.8258 3.82769 14.8636 3.73431C14.9013 3.64094 14.9198 3.54091 14.9181 3.4402C14.9163 3.3395 14.8942 3.24018 14.8532 3.1482C14.8122 3.05621 14.753 2.97343 14.6793 2.90482C13.1824 1.50135 11.2018 0.729492 9.14992 0.750034C7.61987 0.745507 6.11899 1.16854 4.81652 1.97144C3.51404 2.77433 2.46179 3.92515 1.77842 5.29412L1.77732 5.29545C1.19797 6.44426 0.897381 7.7134 0.899918 9.00003C0.901743 10.2862 1.20211 11.5543 1.77736 12.7046L1.77846 12.7059C2.46183 14.0749 3.51407 15.2257 4.81654 16.0286C6.119 16.8315 7.61988 17.2546 9.14992 17.25C11.1639 17.301 13.1212 16.58 14.6209 15.2348L14.6215 15.2344L14.6221 15.2338L14.6222 15.2337L14.6223 15.2336C15.4351 14.4516 16.0755 13.5083 16.5022 12.4641C16.9289 11.42 17.1325 10.2982 17.1 9.1707C17.1003 8.61148 17.0507 8.05335 16.9516 7.50297ZM9.14992 2.25003C10.5532 2.23637 11.9234 2.67644 13.0563 3.50467L11.966 4.59453C11.1394 4.02232 10.1552 3.72131 9.14992 3.73319C8.23209 3.73791 7.33209 3.98713 6.54257 4.4552C5.75304 4.92327 5.10251 5.59329 4.65794 6.39627L3.85603 5.77472L3.41728 5.43447C4.02086 4.45785 4.86477 3.65231 5.8684 3.0948C6.87203 2.5373 8.00184 2.24644 9.14992 2.25003V2.25003ZM2.7595 11.1775C2.28001 9.76546 2.28001 8.23461 2.7595 6.82254L4.09617 7.85892C3.92527 8.60982 3.92527 9.38953 4.09617 10.1404L2.7595 11.1775ZM9.14992 15.75C8.00182 15.7536 6.87199 15.4627 5.86835 14.9052C4.86472 14.3477 4.0208 13.5421 3.41722 12.5655L3.70103 12.3453L4.65794 11.6031C5.10232 12.4063 5.75278 13.0765 6.54234 13.5447C7.33189 14.0129 8.23199 14.2622 9.14992 14.2669C10.0092 14.277 10.8586 14.0841 11.6292 13.7038L12.898 14.6888C11.7821 15.4077 10.4771 15.7773 9.14992 15.75V15.75ZM14.0443 13.6795L13.9071 13.573L12.8741 12.771C13.4157 12.1858 13.7798 11.4587 13.9238 10.6744C13.9439 10.5661 13.94 10.4548 13.9122 10.3482C13.8845 10.2416 13.8336 10.1425 13.7632 10.0578C13.6928 9.97317 13.6046 9.90505 13.5049 9.85831C13.4052 9.81157 13.2964 9.78737 13.1863 9.78742H9.89992V8.38626H15.5615C15.5872 8.64554 15.6 8.90775 15.6 9.17069C15.6438 10.8123 15.0911 12.4142 14.0443 13.6795H14.0443Z" fill="#838383"/>
</g>
<defs>
<clipPath id="clip0_1011_280">
<rect width="18" height="18" fill="white"/>
</clipPath>
</defs>
</svg>
