<svg width="18" height="18" viewBox="0 0 18 18" fill="none" xmlns="http://www.w3.org/2000/svg">
<g clip-path="url(#clip0_1011_286)">
<path d="M16.9516 7.50284C16.9204 7.32988 16.8294 7.17338 16.6945 7.06067C16.5597 6.94795 16.3895 6.88618 16.2137 6.88614H9.14992C9.05142 6.88612 8.95388 6.9055 8.86288 6.94318C8.77187 6.98086 8.68918 7.03611 8.61953 7.10575C8.54988 7.1754 8.49464 7.25809 8.45696 7.3491C8.41927 7.4401 8.39989 7.53764 8.39992 7.63614V10.5373C8.39989 10.6358 8.41927 10.7333 8.45696 10.8243C8.49464 10.9153 8.54988 10.998 8.61953 11.0676C8.68918 11.1373 8.77187 11.1925 8.86288 11.2302C8.95388 11.2679 9.05142 11.2873 9.14992 11.2873H12.1217C11.91 11.6447 11.6197 11.9492 11.2728 12.1779C10.639 12.5798 9.90022 12.7847 9.14992 12.7668C8.37177 12.7579 7.61623 12.5039 6.99066 12.0411C6.36508 11.5782 5.90131 10.9299 5.66524 10.1884L5.66502 10.1872C5.40232 9.4172 5.40232 8.58187 5.66502 7.81191L5.6652 7.81067C5.90143 7.0693 6.36528 6.42122 6.99084 5.9585C7.6164 5.49578 8.37187 5.24195 9.14992 5.23307C9.58223 5.22314 10.0122 5.29872 10.4153 5.45546C10.8183 5.61219 11.1864 5.847 11.4984 6.14639C11.6401 6.28181 11.8292 6.35641 12.0252 6.35422C12.2212 6.35203 12.4086 6.27323 12.5472 6.13468L14.6983 3.98355C14.7696 3.91238 14.8258 3.82757 14.8636 3.73419C14.9013 3.64081 14.9198 3.54078 14.9181 3.44008C14.9163 3.33937 14.8942 3.24006 14.8532 3.14807C14.8122 3.05609 14.753 2.97331 14.6793 2.9047C13.1824 1.50123 11.2018 0.72937 9.14992 0.749911C7.61987 0.745385 6.11899 1.16842 4.81652 1.97132C3.51404 2.77421 2.46179 3.92503 1.77842 5.294L1.77732 5.29532C1.19797 6.44414 0.897381 7.71328 0.899918 8.99991C0.901743 10.286 1.20211 11.5542 1.77736 12.7045L1.77846 12.7058C2.46183 14.0748 3.51407 15.2256 4.81654 16.0285C6.119 16.8314 7.61988 17.2544 9.14992 17.2499C11.1639 17.3009 13.1212 16.5799 14.6209 15.2347L14.6215 15.2343L14.6221 15.2337L14.6222 15.2336L14.6223 15.2335C15.4351 14.4515 16.0755 13.5081 16.5022 12.464C16.9289 11.4199 17.1325 10.2981 17.1 9.17057C17.1003 8.61135 17.0507 8.05322 16.9516 7.50284ZM9.14992 2.24991C10.5532 2.23625 11.9234 2.67632 13.0563 3.50455L11.966 4.59441C11.1394 4.0222 10.1552 3.72119 9.14992 3.73307C8.23209 3.73779 7.33209 3.98701 6.54257 4.45508C5.75304 4.92315 5.10251 5.59316 4.65794 6.39615L3.85603 5.7746L3.41728 5.43434C4.02086 4.45773 4.86477 3.65219 5.8684 3.09468C6.87203 2.53717 8.00184 2.24632 9.14992 2.24991V2.24991ZM2.7595 11.1774C2.28001 9.76534 2.28001 8.23449 2.7595 6.82242L4.09617 7.8588C3.92527 8.6097 3.92527 9.3894 4.09617 10.1403L2.7595 11.1774ZM9.14992 15.7499C8.00182 15.7535 6.87199 15.4626 5.86835 14.9051C4.86472 14.3475 4.0208 13.542 3.41722 12.5653L3.70103 12.3452L4.65794 11.6029C5.10232 12.4061 5.75278 13.0764 6.54234 13.5446C7.33189 14.0128 8.23199 14.2621 9.14992 14.2668C10.0092 14.2769 10.8586 14.0839 11.6292 13.7037L12.898 14.6887C11.7821 15.4076 10.4771 15.7771 9.14992 15.7499V15.7499ZM14.0443 13.6794L13.9071 13.5729L12.8741 12.7709C13.4157 12.1857 13.7798 11.4585 13.9238 10.6743C13.9439 10.566 13.94 10.4546 13.9122 10.3481C13.8845 10.2415 13.8336 10.1424 13.7632 10.0577C13.6928 9.97305 13.6046 9.90492 13.5049 9.85819C13.4052 9.81145 13.2964 9.78725 13.1863 9.7873H9.89992V8.38614H15.5615C15.5872 8.64542 15.6 8.90762 15.6 9.17057C15.6438 10.8122 15.0911 12.4141 14.0443 13.6794H14.0443Z" fill="#838383"/>
</g>
<defs>
<clipPath id="clip0_1011_286">
<rect width="18" height="18" fill="white"/>
</clipPath>
</defs>
</svg>
