<svg width="24" height="25" viewBox="0 0 24 25" fill="none" xmlns="http://www.w3.org/2000/svg">
<path d="M20.0001 8.50001L14.0001 3.24001C13.4501 2.74805 12.738 2.47607 12.0001 2.47607C11.2622 2.47607 10.5501 2.74805 10.0001 3.24001L4.00009 8.50001C3.68246 8.78408 3.42899 9.13256 3.25657 9.52225C3.08414 9.91194 2.99671 10.3339 3.00009 10.76V19.5C3.00009 20.2957 3.31617 21.0587 3.87877 21.6213C4.44138 22.1839 5.20445 22.5 6.00009 22.5H18.0001C18.7957 22.5 19.5588 22.1839 20.1214 21.6213C20.684 21.0587 21.0001 20.2957 21.0001 19.5V10.75C21.0021 10.3256 20.9139 9.90555 20.7416 9.51769C20.5692 9.12983 20.3165 8.78296 20.0001 8.50001V8.50001ZM14.0001 20.5H10.0001V15.5C10.0001 15.2348 10.1055 14.9804 10.293 14.7929C10.4805 14.6054 10.7349 14.5 11.0001 14.5H13.0001C13.2653 14.5 13.5197 14.6054 13.7072 14.7929C13.8947 14.9804 14.0001 15.2348 14.0001 15.5V20.5ZM19.0001 19.5C19.0001 19.7652 18.8947 20.0196 18.7072 20.2071C18.5197 20.3946 18.2653 20.5 18.0001 20.5H16.0001V15.5C16.0001 14.7044 15.684 13.9413 15.1214 13.3787C14.5588 12.8161 13.7957 12.5 13.0001 12.5H11.0001C10.2044 12.5 9.44138 12.8161 8.87877 13.3787C8.31617 13.9413 8.00009 14.7044 8.00009 15.5V20.5H6.00009C5.73488 20.5 5.48052 20.3946 5.29299 20.2071C5.10545 20.0196 5.00009 19.7652 5.00009 19.5V10.75C5.00027 10.608 5.03069 10.4677 5.08931 10.3384C5.14794 10.2091 5.23343 10.0937 5.3401 10L11.3401 4.75001C11.5226 4.58969 11.7572 4.50127 12.0001 4.50127C12.243 4.50127 12.4776 4.58969 12.6601 4.75001L18.6601 10C18.7668 10.0937 18.8523 10.2091 18.9109 10.3384C18.9695 10.4677 18.9999 10.608 19.0001 10.75V19.5Z" fill="#F7F7F7"/>
</svg>
