<svg width="20" height="20" viewBox="0 0 20 20" fill="none" xmlns="http://www.w3.org/2000/svg">
<path d="M17.0834 12.5834C16.8856 12.4852 16.6568 12.4695 16.4475 12.5398C16.2381 12.6101 16.0652 12.7607 15.9667 12.9584C15.4393 14.0236 14.6367 14.9284 13.642 15.5791C12.6473 16.2298 11.4967 16.6027 10.3095 16.6592C9.1222 16.7157 7.94141 16.4538 6.88941 15.9006C5.8374 15.3473 4.95243 14.5229 4.32617 13.5127C3.69991 12.5024 3.35513 11.3431 3.32754 10.1548C3.29995 8.96654 3.59055 7.79248 4.16926 6.75426C4.74796 5.71604 5.59371 4.85142 6.61891 4.24996C7.64411 3.64849 8.81147 3.33205 10.0001 3.33342C11.2427 3.32804 12.4616 3.67312 13.517 4.32905C14.5724 4.98498 15.4214 5.92518 15.9667 7.04175C16.0662 7.24067 16.2406 7.39192 16.4516 7.46225C16.6626 7.53258 16.8928 7.51621 17.0917 7.41675C17.2907 7.3173 17.4419 7.1429 17.5122 6.93192C17.5826 6.72094 17.5662 6.49067 17.4667 6.29175C16.6306 4.60904 15.2503 3.2583 13.5498 2.45878C11.8494 1.65925 9.92869 1.45787 8.09941 1.88732C6.27013 2.31677 4.63968 3.35183 3.47268 4.82452C2.30569 6.29721 1.67065 8.12108 1.67065 10.0001C1.67065 11.8791 2.30569 13.703 3.47268 15.1757C4.63968 16.6483 6.27013 17.6834 8.09941 18.1129C9.92869 18.5423 11.8494 18.3409 13.5498 17.5414C15.2503 16.7419 16.6306 15.3911 17.4667 13.7084C17.5164 13.6096 17.5459 13.5018 17.5535 13.3914C17.561 13.2811 17.5466 13.1703 17.5109 13.0656C17.4752 12.9609 17.419 12.8643 17.3456 12.7815C17.2722 12.6987 17.1831 12.6314 17.0834 12.5834ZM17.5001 9.16675H9.50841L11.4251 7.25842C11.5028 7.18072 11.5644 7.08848 11.6065 6.98696C11.6485 6.88544 11.6702 6.77664 11.6702 6.66675C11.6702 6.55687 11.6485 6.44807 11.6065 6.34655C11.5644 6.24503 11.5028 6.15279 11.4251 6.07509C11.3474 5.99739 11.2551 5.93576 11.1536 5.89371C11.0521 5.85165 10.9433 5.83001 10.8334 5.83001C10.7235 5.83001 10.6147 5.85165 10.5132 5.89371C10.4117 5.93576 10.3194 5.99739 10.2417 6.07509L6.90841 9.40842C6.83254 9.48767 6.77307 9.58113 6.73341 9.68342C6.65006 9.88631 6.65006 10.1139 6.73341 10.3168C6.77307 10.419 6.83254 10.5125 6.90841 10.5918L10.2417 13.9251C10.3192 14.0032 10.4114 14.0652 10.5129 14.1075C10.6145 14.1498 10.7234 14.1716 10.8334 14.1716C10.9434 14.1716 11.0523 14.1498 11.1539 14.1075C11.2554 14.0652 11.3476 14.0032 11.4251 13.9251C11.5032 13.8476 11.5652 13.7555 11.6075 13.6539C11.6498 13.5524 11.6716 13.4434 11.6716 13.3334C11.6716 13.2234 11.6498 13.1145 11.6075 13.0129C11.5652 12.9114 11.5032 12.8192 11.4251 12.7418L9.50841 10.8334H17.5001C17.7211 10.8334 17.9331 10.7456 18.0893 10.5893C18.2456 10.4331 18.3334 10.2211 18.3334 10.0001C18.3334 9.77907 18.2456 9.56711 18.0893 9.41083C17.9331 9.25455 17.7211 9.16675 17.5001 9.16675Z" fill="white"/>
</svg>
