<svg width="20" height="20" viewBox="0 0 20 20" fill="none" xmlns="http://www.w3.org/2000/svg">
<path d="M17.0832 12.5834C16.8853 12.4852 16.6566 12.4695 16.4472 12.5398C16.2378 12.6101 16.0649 12.7607 15.9665 12.9584C15.4391 14.0236 14.6364 14.9284 13.6417 15.5791C12.647 16.2298 11.4965 16.6027 10.3092 16.6592C9.12196 16.7157 7.94117 16.4538 6.88916 15.9006C5.83715 15.3473 4.95219 14.5229 4.32593 13.5127C3.69966 12.5024 3.35488 11.3431 3.32729 10.1548C3.2997 8.96654 3.59031 7.79248 4.16901 6.75426C4.74772 5.71604 5.59347 4.85142 6.61866 4.24996C7.64386 3.64849 8.81122 3.33205 9.99983 3.33342C11.2424 3.32804 12.4614 3.67312 13.5168 4.32905C14.5721 4.98498 15.4212 5.92518 15.9665 7.04175C16.066 7.24067 16.2404 7.39192 16.4513 7.46225C16.6623 7.53258 16.8926 7.51621 17.0915 7.41675C17.2904 7.3173 17.4417 7.1429 17.512 6.93192C17.5823 6.72094 17.566 6.49067 17.4665 6.29175C16.6303 4.60904 15.25 3.2583 13.5496 2.45878C11.8492 1.65925 9.92845 1.45787 8.09917 1.88732C6.26989 2.31677 4.63943 3.35183 3.47244 4.82452C2.30544 6.29721 1.67041 8.12108 1.67041 10.0001C1.67041 11.8791 2.30544 13.703 3.47244 15.1757C4.63943 16.6483 6.26989 17.6834 8.09917 18.1129C9.92845 18.5423 11.8492 18.3409 13.5496 17.5414C15.25 16.7419 16.6303 15.3911 17.4665 13.7084C17.5162 13.6096 17.5456 13.5018 17.5532 13.3914C17.5608 13.2811 17.5463 13.1703 17.5106 13.0656C17.475 12.9609 17.4188 12.8643 17.3454 12.7815C17.272 12.6987 17.1829 12.6314 17.0832 12.5834ZM17.4998 9.16675H9.50817L11.4248 7.25842C11.5025 7.18072 11.5642 7.08848 11.6062 6.98696C11.6483 6.88544 11.6699 6.77664 11.6699 6.66675C11.6699 6.55687 11.6483 6.44807 11.6062 6.34655C11.5642 6.24503 11.5025 6.15279 11.4248 6.07509C11.3471 5.99739 11.2549 5.93576 11.1534 5.89371C11.0519 5.85165 10.943 5.83001 10.8332 5.83001C10.7233 5.83001 10.6145 5.85165 10.513 5.89371C10.4114 5.93576 10.3192 5.99739 10.2415 6.07509L6.90817 9.40842C6.8323 9.48767 6.77283 9.58113 6.73317 9.68342C6.64982 9.88631 6.64982 10.1139 6.73317 10.3168C6.77283 10.419 6.8323 10.5125 6.90817 10.5918L10.2415 13.9251C10.319 14.0032 10.4111 14.0652 10.5127 14.1075C10.6142 14.1498 10.7232 14.1716 10.8332 14.1716C10.9432 14.1716 11.0521 14.1498 11.1536 14.1075C11.2552 14.0652 11.3474 14.0032 11.4248 13.9251C11.5029 13.8476 11.5649 13.7555 11.6072 13.6539C11.6495 13.5524 11.6713 13.4434 11.6713 13.3334C11.6713 13.2234 11.6495 13.1145 11.6072 13.0129C11.5649 12.9114 11.5029 12.8192 11.4248 12.7418L9.50817 10.8334H17.4998C17.7208 10.8334 17.9328 10.7456 18.0891 10.5893C18.2454 10.4331 18.3332 10.2211 18.3332 10.0001C18.3332 9.77907 18.2454 9.56711 18.0891 9.41083C17.9328 9.25455 17.7208 9.16675 17.4998 9.16675Z" fill="#101010"/>
</svg>
