<svg width="25" height="25" viewBox="0 0 25 25" fill="none" xmlns="http://www.w3.org/2000/svg">
<path d="M16.75 14.5H8.75C8.48478 14.5 8.23043 14.6054 8.04289 14.7929C7.85536 14.9804 7.75 15.2348 7.75 15.5C7.75 15.7652 7.85536 16.0196 8.04289 16.2071C8.23043 16.3946 8.48478 16.5 8.75 16.5H16.75C17.0152 16.5 17.2696 16.3946 17.4571 16.2071C17.6446 16.0196 17.75 15.7652 17.75 15.5C17.75 15.2348 17.6446 14.9804 17.4571 14.7929C17.2696 14.6054 17.0152 14.5 16.75 14.5ZM16.75 10.5H10.75C10.4848 10.5 10.2304 10.6054 10.0429 10.7929C9.85536 10.9804 9.75 11.2348 9.75 11.5C9.75 11.7652 9.85536 12.0196 10.0429 12.2071C10.2304 12.3946 10.4848 12.5 10.75 12.5H16.75C17.0152 12.5 17.2696 12.3946 17.4571 12.2071C17.6446 12.0196 17.75 11.7652 17.75 11.5C17.75 11.2348 17.6446 10.9804 17.4571 10.7929C17.2696 10.6054 17.0152 10.5 16.75 10.5ZM20.75 4.5H17.75V3.5C17.75 3.23478 17.6446 2.98043 17.4571 2.79289C17.2696 2.60536 17.0152 2.5 16.75 2.5C16.4848 2.5 16.2304 2.60536 16.0429 2.79289C15.8554 2.98043 15.75 3.23478 15.75 3.5V4.5H13.75V3.5C13.75 3.23478 13.6446 2.98043 13.4571 2.79289C13.2696 2.60536 13.0152 2.5 12.75 2.5C12.4848 2.5 12.2304 2.60536 12.0429 2.79289C11.8554 2.98043 11.75 3.23478 11.75 3.5V4.5H9.75V3.5C9.75 3.23478 9.64464 2.98043 9.45711 2.79289C9.26957 2.60536 9.01522 2.5 8.75 2.5C8.48478 2.5 8.23043 2.60536 8.04289 2.79289C7.85536 2.98043 7.75 3.23478 7.75 3.5V4.5H4.75C4.48478 4.5 4.23043 4.60536 4.04289 4.79289C3.85536 4.98043 3.75 5.23478 3.75 5.5V19.5C3.75 20.2956 4.06607 21.0587 4.62868 21.6213C5.19129 22.1839 5.95435 22.5 6.75 22.5H18.75C19.5456 22.5 20.3087 22.1839 20.8713 21.6213C21.4339 21.0587 21.75 20.2956 21.75 19.5V5.5C21.75 5.23478 21.6446 4.98043 21.4571 4.79289C21.2696 4.60536 21.0152 4.5 20.75 4.5V4.5ZM19.75 19.5C19.75 19.7652 19.6446 20.0196 19.4571 20.2071C19.2696 20.3946 19.0152 20.5 18.75 20.5H6.75C6.48478 20.5 6.23043 20.3946 6.04289 20.2071C5.85536 20.0196 5.75 19.7652 5.75 19.5V6.5H7.75V7.5C7.75 7.76522 7.85536 8.01957 8.04289 8.20711C8.23043 8.39464 8.48478 8.5 8.75 8.5C9.01522 8.5 9.26957 8.39464 9.45711 8.20711C9.64464 8.01957 9.75 7.76522 9.75 7.5V6.5H11.75V7.5C11.75 7.76522 11.8554 8.01957 12.0429 8.20711C12.2304 8.39464 12.4848 8.5 12.75 8.5C13.0152 8.5 13.2696 8.39464 13.4571 8.20711C13.6446 8.01957 13.75 7.76522 13.75 7.5V6.5H15.75V7.5C15.75 7.76522 15.8554 8.01957 16.0429 8.20711C16.2304 8.39464 16.4848 8.5 16.75 8.5C17.0152 8.5 17.2696 8.39464 17.4571 8.20711C17.6446 8.01957 17.75 7.76522 17.75 7.5V6.5H19.75V19.5Z" fill="#F7F7F7"/>
</svg>
