<svg width="19" height="18" viewBox="0 0 19 18" fill="none" xmlns="http://www.w3.org/2000/svg">
<path d="M12.5 10.5H6.5C6.30109 10.5 6.11032 10.579 5.96967 10.7197C5.82902 10.8603 5.75 11.0511 5.75 11.25C5.75 11.4489 5.82902 11.6397 5.96967 11.7803C6.11032 11.921 6.30109 12 6.5 12H12.5C12.6989 12 12.8897 11.921 13.0303 11.7803C13.171 11.6397 13.25 11.4489 13.25 11.25C13.25 11.0511 13.171 10.8603 13.0303 10.7197C12.8897 10.579 12.6989 10.5 12.5 10.5ZM12.5 7.5H8C7.80109 7.5 7.61032 7.57902 7.46967 7.71967C7.32902 7.86032 7.25 8.05109 7.25 8.25C7.25 8.44891 7.32902 8.63968 7.46967 8.78033C7.61032 8.92098 7.80109 9 8 9H12.5C12.6989 9 12.8897 8.92098 13.0303 8.78033C13.171 8.63968 13.25 8.44891 13.25 8.25C13.25 8.05109 13.171 7.86032 13.0303 7.71967C12.8897 7.57902 12.6989 7.5 12.5 7.5ZM15.5 3H13.25V2.25C13.25 2.05109 13.171 1.86032 13.0303 1.71967C12.8897 1.57902 12.6989 1.5 12.5 1.5C12.3011 1.5 12.1103 1.57902 11.9697 1.71967C11.829 1.86032 11.75 2.05109 11.75 2.25V3H10.25V2.25C10.25 2.05109 10.171 1.86032 10.0303 1.71967C9.88968 1.57902 9.69891 1.5 9.5 1.5C9.30109 1.5 9.11032 1.57902 8.96967 1.71967C8.82902 1.86032 8.75 2.05109 8.75 2.25V3H7.25V2.25C7.25 2.05109 7.17098 1.86032 7.03033 1.71967C6.88968 1.57902 6.69891 1.5 6.5 1.5C6.30109 1.5 6.11032 1.57902 5.96967 1.71967C5.82902 1.86032 5.75 2.05109 5.75 2.25V3H3.5C3.30109 3 3.11032 3.07902 2.96967 3.21967C2.82902 3.36032 2.75 3.55109 2.75 3.75V14.25C2.75 14.8467 2.98705 15.419 3.40901 15.841C3.83097 16.2629 4.40326 16.5 5 16.5H14C14.5967 16.5 15.169 16.2629 15.591 15.841C16.0129 15.419 16.25 14.8467 16.25 14.25V3.75C16.25 3.55109 16.171 3.36032 16.0303 3.21967C15.8897 3.07902 15.6989 3 15.5 3V3ZM14.75 14.25C14.75 14.4489 14.671 14.6397 14.5303 14.7803C14.3897 14.921 14.1989 15 14 15H5C4.80109 15 4.61032 14.921 4.46967 14.7803C4.32902 14.6397 4.25 14.4489 4.25 14.25V4.5H5.75V5.25C5.75 5.44891 5.82902 5.63968 5.96967 5.78033C6.11032 5.92098 6.30109 6 6.5 6C6.69891 6 6.88968 5.92098 7.03033 5.78033C7.17098 5.63968 7.25 5.44891 7.25 5.25V4.5H8.75V5.25C8.75 5.44891 8.82902 5.63968 8.96967 5.78033C9.11032 5.92098 9.30109 6 9.5 6C9.69891 6 9.88968 5.92098 10.0303 5.78033C10.171 5.63968 10.25 5.44891 10.25 5.25V4.5H11.75V5.25C11.75 5.44891 11.829 5.63968 11.9697 5.78033C12.1103 5.92098 12.3011 6 12.5 6C12.6989 6 12.8897 5.92098 13.0303 5.78033C13.171 5.63968 13.25 5.44891 13.25 5.25V4.5H14.75V14.25Z" fill="white"/>
</svg>
