<svg width="19" height="19" viewBox="0 0 19 19" fill="none" xmlns="http://www.w3.org/2000/svg">
<path d="M12.5 11H6.5C6.30109 11 6.11032 11.079 5.96967 11.2197C5.82902 11.3603 5.75 11.5511 5.75 11.75C5.75 11.9489 5.82902 12.1397 5.96967 12.2803C6.11032 12.421 6.30109 12.5 6.5 12.5H12.5C12.6989 12.5 12.8897 12.421 13.0303 12.2803C13.171 12.1397 13.25 11.9489 13.25 11.75C13.25 11.5511 13.171 11.3603 13.0303 11.2197C12.8897 11.079 12.6989 11 12.5 11ZM12.5 8H8C7.80109 8 7.61032 8.07902 7.46967 8.21967C7.32902 8.36032 7.25 8.55109 7.25 8.75C7.25 8.94891 7.32902 9.13968 7.46967 9.28033C7.61032 9.42098 7.80109 9.5 8 9.5H12.5C12.6989 9.5 12.8897 9.42098 13.0303 9.28033C13.171 9.13968 13.25 8.94891 13.25 8.75C13.25 8.55109 13.171 8.36032 13.0303 8.21967C12.8897 8.07902 12.6989 8 12.5 8ZM15.5 3.5H13.25V2.75C13.25 2.55109 13.171 2.36032 13.0303 2.21967C12.8897 2.07902 12.6989 2 12.5 2C12.3011 2 12.1103 2.07902 11.9697 2.21967C11.829 2.36032 11.75 2.55109 11.75 2.75V3.5H10.25V2.75C10.25 2.55109 10.171 2.36032 10.0303 2.21967C9.88968 2.07902 9.69891 2 9.5 2C9.30109 2 9.11032 2.07902 8.96967 2.21967C8.82902 2.36032 8.75 2.55109 8.75 2.75V3.5H7.25V2.75C7.25 2.55109 7.17098 2.36032 7.03033 2.21967C6.88968 2.07902 6.69891 2 6.5 2C6.30109 2 6.11032 2.07902 5.96967 2.21967C5.82902 2.36032 5.75 2.55109 5.75 2.75V3.5H3.5C3.30109 3.5 3.11032 3.57902 2.96967 3.71967C2.82902 3.86032 2.75 4.05109 2.75 4.25V14.75C2.75 15.3467 2.98705 15.919 3.40901 16.341C3.83097 16.7629 4.40326 17 5 17H14C14.5967 17 15.169 16.7629 15.591 16.341C16.0129 15.919 16.25 15.3467 16.25 14.75V4.25C16.25 4.05109 16.171 3.86032 16.0303 3.71967C15.8897 3.57902 15.6989 3.5 15.5 3.5V3.5ZM14.75 14.75C14.75 14.9489 14.671 15.1397 14.5303 15.2803C14.3897 15.421 14.1989 15.5 14 15.5H5C4.80109 15.5 4.61032 15.421 4.46967 15.2803C4.32902 15.1397 4.25 14.9489 4.25 14.75V5H5.75V5.75C5.75 5.94891 5.82902 6.13968 5.96967 6.28033C6.11032 6.42098 6.30109 6.5 6.5 6.5C6.69891 6.5 6.88968 6.42098 7.03033 6.28033C7.17098 6.13968 7.25 5.94891 7.25 5.75V5H8.75V5.75C8.75 5.94891 8.82902 6.13968 8.96967 6.28033C9.11032 6.42098 9.30109 6.5 9.5 6.5C9.69891 6.5 9.88968 6.42098 10.0303 6.28033C10.171 6.13968 10.25 5.94891 10.25 5.75V5H11.75V5.75C11.75 5.94891 11.829 6.13968 11.9697 6.28033C12.1103 6.42098 12.3011 6.5 12.5 6.5C12.6989 6.5 12.8897 6.42098 13.0303 6.28033C13.171 6.13968 13.25 5.94891 13.25 5.75V5H14.75V14.75Z" fill="black"/>
</svg>
