<svg width="25" height="25" viewBox="0 0 25 25" fill="none" xmlns="http://www.w3.org/2000/svg">
<path d="M12.5 9.5C11.9067 9.5 11.3266 9.67595 10.8333 10.0056C10.3399 10.3352 9.95542 10.8038 9.72836 11.3519C9.5013 11.9001 9.44189 12.5033 9.55764 13.0853C9.6734 13.6672 9.95912 14.2018 10.3787 14.6213C10.7982 15.0409 11.3328 15.3266 11.9147 15.4424C12.4967 15.5581 13.0999 15.4987 13.6481 15.2716C14.1962 15.0446 14.6648 14.6601 14.9944 14.1667C15.3241 13.6734 15.5 13.0933 15.5 12.5C15.5 11.7044 15.1839 10.9413 14.6213 10.3787C14.0587 9.81607 13.2956 9.5 12.5 9.5ZM12.5 13.5C12.3022 13.5 12.1089 13.4414 11.9444 13.3315C11.78 13.2216 11.6518 13.0654 11.5761 12.8827C11.5004 12.7 11.4806 12.4989 11.5192 12.3049C11.5578 12.1109 11.653 11.9327 11.7929 11.7929C11.9327 11.653 12.1109 11.5578 12.3049 11.5192C12.4989 11.4806 12.7 11.5004 12.8827 11.5761C13.0654 11.6518 13.2216 11.78 13.3315 11.9444C13.4414 12.1089 13.5 12.3022 13.5 12.5C13.5 12.7652 13.3946 13.0196 13.2071 13.2071C13.0196 13.3946 12.7652 13.5 12.5 13.5ZM21.5 11.5H20.43C20.2068 9.73998 19.4049 8.10408 18.1504 6.84959C16.8959 5.5951 15.26 4.79319 13.5 4.57V3.5C13.5 3.23478 13.3946 2.98043 13.2071 2.79289C13.0196 2.60536 12.7652 2.5 12.5 2.5C12.2348 2.5 11.9804 2.60536 11.7929 2.79289C11.6054 2.98043 11.5 3.23478 11.5 3.5V4.57C9.73998 4.79319 8.10408 5.5951 6.84959 6.84959C5.5951 8.10408 4.79319 9.73998 4.57 11.5H3.5C3.23478 11.5 2.98043 11.6054 2.79289 11.7929C2.60536 11.9804 2.5 12.2348 2.5 12.5C2.5 12.7652 2.60536 13.0196 2.79289 13.2071C2.98043 13.3946 3.23478 13.5 3.5 13.5H4.57C4.79319 15.26 5.5951 16.8959 6.84959 18.1504C8.10408 19.4049 9.73998 20.2068 11.5 20.43V21.5C11.5 21.7652 11.6054 22.0196 11.7929 22.2071C11.9804 22.3946 12.2348 22.5 12.5 22.5C12.7652 22.5 13.0196 22.3946 13.2071 22.2071C13.3946 22.0196 13.5 21.7652 13.5 21.5V20.43C15.26 20.2068 16.8959 19.4049 18.1504 18.1504C19.4049 16.8959 20.2068 15.26 20.43 13.5H21.5C21.7652 13.5 22.0196 13.3946 22.2071 13.2071C22.3946 13.0196 22.5 12.7652 22.5 12.5C22.5 12.2348 22.3946 11.9804 22.2071 11.7929C22.0196 11.6054 21.7652 11.5 21.5 11.5ZM12.5 18.5C11.3133 18.5 10.1533 18.1481 9.16658 17.4888C8.17988 16.8295 7.41085 15.8925 6.95672 14.7961C6.5026 13.6997 6.38378 12.4933 6.61529 11.3295C6.8468 10.1656 7.41824 9.09647 8.25736 8.25736C9.09647 7.41824 10.1656 6.8468 11.3295 6.61529C12.4933 6.38378 13.6997 6.5026 14.7961 6.95672C15.8925 7.41085 16.8295 8.17988 17.4888 9.16658C18.1481 10.1533 18.5 11.3133 18.5 12.5C18.5 14.0913 17.8679 15.6174 16.7426 16.7426C15.6174 17.8679 14.0913 18.5 12.5 18.5Z" fill="#F7F7F7"/>
</svg>
